<?xml version="1.0" encoding="utf-8"?>
<!-- Generator: Adobe Illustrator 16.0.0, SVG Export Plug-In . SVG Version: 6.00 Build 0)  -->
<!DOCTYPE svg PUBLIC "-//W3C//DTD SVG 1.1//EN" "http://www.w3.org/Graphics/SVG/1.1/DTD/svg11.dtd">
<svg version="1.1" id="Layer_1" xmlns="http://www.w3.org/2000/svg" xmlns:xlink="http://www.w3.org/1999/xlink" x="0px" y="0px"
	 width="132.94px" height="132.951px" viewBox="0 0 132.94 132.951" enable-background="new 0 0 132.94 132.951"
	 xml:space="preserve">
<circle opacity="0.1" fill-rule="evenodd" clip-rule="evenodd" fill="#231F20" cx="66.47" cy="66.476" r="54.25"/>
<g>
	<path fill-rule="evenodd" clip-rule="evenodd" fill="#231F20" d="M128.547,68.313c-0.882,0.001-1.765,0.012-2.647-0.005
		c-0.293-0.006-0.389,0.091-0.406,0.38c-0.053,0.901-0.086,1.803-0.159,2.704c-0.339,4.143-1.076,8.213-2.318,12.178
		c-4.731,15.11-13.991,26.602-27.716,34.477c-5.741,3.294-11.916,5.439-18.425,6.617c-2.648,0.479-5.32,0.751-8.008,0.871
		c-0.642,0.029-0.576-0.048-0.577,0.623c-0.002,1.642,0.011,3.284-0.005,4.926c-0.011,1.135-0.901,1.946-1.996,1.861
		c-0.976-0.076-1.684-0.867-1.691-1.927c-0.011-1.58-0.003-3.161-0.003-4.741c0-0.719,0-0.712-0.703-0.746
		c-10.657-0.51-20.514-3.575-29.471-9.385c-10.125-6.567-17.577-15.426-22.365-26.506c-1.845-4.27-3.128-8.709-3.892-13.299
		c-0.401-2.411-0.672-4.834-0.761-7.278c-0.003-0.082-0.008-0.164-0.015-0.246c-0.038-0.498-0.038-0.503-0.526-0.504
		c-1.58-0.002-3.161,0-4.741,0c-0.267-0.001-0.536,0.013-0.795-0.061c-0.785-0.223-1.337-0.975-1.328-1.8
		c0.009-0.811,0.538-1.511,1.313-1.743c0.279-0.083,0.564-0.095,0.853-0.095c1.54,0.003,3.079,0.004,4.618,0
		c0.642-0.001,0.579,0.085,0.609-0.599c0.071-1.601,0.2-3.193,0.391-4.784c0.465-3.88,1.308-7.676,2.55-11.379
		c3.495-10.416,9.42-19.207,17.759-26.354C34.245,16.228,41.208,12.399,48.95,10C53.853,8.48,58.868,7.611,64,7.424
		c0.082-0.003,0.164-0.014,0.246-0.009c0.257,0.013,0.363-0.094,0.356-0.363c-0.015-0.595-0.005-1.19-0.005-1.786
		c0-1.149-0.021-2.299,0.007-3.448c0.029-1.22,1.11-2.037,2.285-1.766c0.793,0.183,1.376,0.884,1.396,1.736
		c0.021,0.903,0.006,1.806,0.006,2.709c0,0.821-0.004,1.642,0.001,2.463c0.003,0.428,0.009,0.443,0.444,0.456
		c1.252,0.035,2.499,0.13,3.745,0.254c4.631,0.462,9.159,1.423,13.528,3.018c15.751,5.75,27.186,16.243,34.285,31.43
		c2.332,4.989,3.81,10.248,4.618,15.693c0.289,1.949,0.491,3.908,0.554,5.879c0.005,0.164,0.021,0.328,0.029,0.492
		c0.022,0.425-0.006,0.439,0.457,0.438c1.601-0.004,3.202-0.001,4.803-0.002c0.267,0,0.531,0.005,0.793,0.076
		c0.878,0.237,1.458,1.039,1.386,1.931c-0.075,0.918-0.807,1.628-1.738,1.685c-0.041,0.002-0.082,0.004-0.124,0.004
		C130.23,68.313,129.39,68.313,128.547,68.313z M68.358,103.38c-0.108,0.197-0.063,0.386-0.064,0.566
		c-0.003,4.534-0.002,9.069-0.002,13.604c0,0.041,0,0.082,0,0.123c0.008,0.479,0.009,0.487,0.462,0.471
		c0.348-0.013,0.695-0.054,1.043-0.074c3.41-0.192,6.764-0.74,10.055-1.641c10.692-2.924,19.595-8.658,26.61-17.23
		c7.214-8.817,11.062-18.967,11.631-30.352c0.026-0.529,0.026-0.529-0.514-0.533c-0.062-0.001-0.123,0-0.185,0
		c-4.453,0-8.905,0-13.357,0c-0.123,0-0.248,0.011-0.369-0.002c-0.276-0.031-0.364,0.116-0.367,0.359
		c-0.001,0.082-0.012,0.164-0.015,0.246c-0.079,1.704-0.307,3.393-0.672,5.056c-2.195,9.987-7.554,17.833-16.074,23.48
		c-4.525,2.999-9.517,4.826-14.897,5.59C70.547,103.198,69.443,103.263,68.358,103.38z M64.536,103.382
		c-1.088-0.122-2.191-0.186-3.287-0.341c-4.431-0.625-8.605-2.014-12.53-4.159c-11.007-6.018-18.366-17.364-19.13-30.02
		c-0.033-0.543-0.038-0.548-0.555-0.549c-4.576-0.001-9.152-0.001-13.728,0c-0.542,0-0.54,0.005-0.518,0.535
		c0.139,3.329,0.6,6.613,1.398,9.847c2.55,10.33,7.759,19.096,15.667,26.2c9.101,8.176,19.825,12.535,32.035,13.238
		c0.827,0.047,0.707,0.09,0.707-0.644c0.003-4.494,0.002-8.988,0-13.482C64.595,103.809,64.643,103.6,64.536,103.382z
		 M118.111,64.541c-0.051-0.881-0.089-1.775-0.165-2.671c-0.29-3.403-0.923-6.741-1.887-10.014
		c-5.039-17.104-18.606-30.465-35.765-35.227c-3.769-1.046-7.606-1.668-11.518-1.813c-0.475-0.018-0.483-0.009-0.483,0.441
		c-0.002,4.618-0.002,9.237,0,13.854c0,0.462,0.009,0.469,0.475,0.491c1.499,0.069,2.984,0.26,4.456,0.54
		c6.121,1.162,11.644,3.656,16.453,7.622c7.816,6.445,12.328,14.717,13.485,24.797c0.065,0.57,0.104,1.144,0.139,1.717
		c0.016,0.261,0.122,0.374,0.383,0.341c0.081-0.01,0.164-0.001,0.246-0.001c4.536,0,9.072,0,13.608-0.002
		C117.717,64.616,117.906,64.663,118.111,64.541z M14.769,64.548c0.216,0.101,0.382,0.068,0.543,0.068
		c4.556,0.002,9.111,0.002,13.667,0.002c0.082,0,0.165-0.007,0.246,0c0.229,0.022,0.347-0.071,0.348-0.307
		c0-0.103,0.015-0.205,0.021-0.307c0.151-2.631,0.597-5.212,1.342-7.738c2.594-8.788,7.721-15.72,15.364-20.758
		c5.383-3.549,11.328-5.486,17.765-5.903c0.526-0.034,0.527-0.03,0.532-0.56c0-0.041,0-0.082,0-0.123c0-4.495,0-8.988,0-13.482
		c0-0.123-0.007-0.247,0.001-0.369c0.016-0.222-0.096-0.287-0.297-0.267c-0.122,0.012-0.246,0.009-0.369,0.014
		c-2.442,0.101-4.86,0.405-7.262,0.86c-5.67,1.075-11.025,3.022-15.994,5.947c-11.807,6.951-19.771,16.977-23.806,30.085
		C15.587,55.885,14.921,60.17,14.769,64.548z M68.356,95.929c0.058,0.007,0.117,0.023,0.174,0.019
		c2.277-0.168,4.509-0.575,6.69-1.257c10.205-3.193,17.853-11.566,20.125-22.051c0.274-1.262,0.471-2.539,0.544-3.832
		c0.027-0.489,0.022-0.49-0.49-0.495c-0.103-0.001-0.205,0-0.308,0c-3.815,0-7.631-0.002-11.447,0.003
		c-0.363,0-0.799-0.147-1.072,0.08c-0.251,0.21-0.16,0.652-0.22,0.99c-1.09,6.079-5.717,11.113-11.683,12.697
		c-0.633,0.168-1.273,0.309-1.925,0.39c-0.447,0.056-0.445,0.067-0.452,0.538c-0.001,0.062,0,0.123,0,0.185
		c0,4.042-0.001,8.083,0.003,12.124C68.294,95.52,68.242,95.729,68.356,95.929z M64.541,95.952c0.093-0.231,0.055-0.459,0.056-0.68
		c0.002-3.94,0.002-7.88-0.001-11.82c0-0.285,0.111-0.626-0.053-0.842c-0.172-0.225-0.536-0.137-0.815-0.185
		c-6.947-1.205-12.285-6.697-13.292-13.697c-0.051-0.356-0.192-0.421-0.51-0.42c-4.166,0.008-8.331,0.005-12.497,0.006
		c-0.46,0-0.467,0.009-0.439,0.483c0.09,1.499,0.328,2.977,0.676,4.433c2.492,10.425,10.241,18.59,20.522,21.621
		C60.255,95.461,62.37,95.83,64.541,95.952z M36.981,64.542c0.154,0.117,0.302,0.073,0.441,0.073
		c4.146,0.003,8.292,0.002,12.438,0.002c0.083,0,0.165-0.004,0.247,0c0.202,0.011,0.287-0.082,0.311-0.285
		c0.046-0.386,0.1-0.773,0.182-1.154c1.45-6.733,6.74-11.703,13.549-12.734c0.441-0.066,0.447-0.066,0.447-0.521
		c0.003-1.601,0.001-3.202,0.001-4.803c0-2.565,0.001-5.13-0.001-7.696c0-0.436-0.009-0.447-0.434-0.421
		c-0.942,0.058-1.876,0.188-2.806,0.351c-5.446,0.953-10.258,3.247-14.397,6.901c-5.249,4.633-8.461,10.427-9.668,17.325
		C37.119,62.563,36.972,63.554,36.981,64.542z M95.899,64.554c0-0.832-0.117-1.658-0.243-2.484
		c-0.959-6.301-3.671-11.738-8.122-16.286c-4.517-4.614-9.996-7.424-16.36-8.5c-0.848-0.143-1.704-0.248-2.565-0.292
		c-0.235-0.012-0.35,0.057-0.319,0.307c0.012,0.101,0.001,0.205,0.001,0.308c0,4.063,0,8.125,0,12.188
		c0,0.103,0.01,0.206-0.001,0.308c-0.026,0.246,0.105,0.305,0.323,0.335c0.446,0.062,0.89,0.143,1.331,0.236
		c6.461,1.356,11.629,6.926,12.505,13.473c0.062,0.461,0.062,0.461,0.51,0.471c0.062,0,0.123,0,0.185,0
		c4.042,0,8.084,0,12.126-0.003C95.469,64.615,95.677,64.666,95.899,64.554z"/>
</g>
</svg>
